<?xml version="1.0" standalone="no"?><!DOCTYPE svg PUBLIC "-//W3C//DTD SVG 1.1//EN" "http://www.w3.org/Graphics/SVG/1.1/DTD/svg11.dtd"><svg t="1707045902687" class="icon" viewBox="0 0 1312 1024" version="1.1" xmlns="http://www.w3.org/2000/svg" p-id="8567" xmlns:xlink="http://www.w3.org/1999/xlink" width="256.25" height="200"><path d="M800.543253 151.28877H374.502781c-25.503224 0-48.729375-6.148099-65.670802-26.368512-19.355126-23.135068-24.820102-49.321414-12.797154-77.830376C308.604271 17.260218 332.468003 3.233445 363.663911 0.31879 369.311054 0 375.003738 0 380.696422 0h853.765977c45.541472 1.776117 76.691839 31.87903 76.965088 74.323682 0.227707 43.719813-30.512786 74.688014-76.327507 76.737381h-17.032511zM800.497711 587.48499H374.45724c-40.395286 0-68.722081-18.216589-80.244074-51.097532-16.759262-47.681921 16.71372-95.637091 69.496287-99.826907 3.962108-0.31879 7.969758 0 11.931865 0H1225.991685c35.704514 0 65.124305 11.476451 80.016367 46.315678 22.042072 51.461863-15.347476 104.24443-74.414766 104.745385-74.414765 0.637581-148.829531 0-223.153213 0zM801.772873 872.756771h417.478674c6.239182 0 12.523905 0 18.763087 0.227708 43.62873 3.278986 73.139604 33.199733 73.367311 74.323682 0 42.444652-28.873293 72.866355-73.094062 76.464132H372.635581c-24.911185 0-47.454214-6.694596-63.758061-26.414054-19.309584-23.226151-24.729019-49.458039-12.660529-77.921459 12.660529-29.784123 36.433178-43.765355 67.76571-46.588926 6.19364-0.592039 12.478363-0.273249 18.717545-0.273249zM0.015256 74.505848A74.187058 74.187058 0 0 1 75.067602 0.31879a76.41859 76.41859 0 0 1 73.640561 76.509673 76.600756 76.600756 0 0 1-74.2326 74.187058C32.714033 151.425395 0.015256 117.542539 0.015256 74.505848zM0.015256 511.840605a74.187058 74.187058 0 0 1 74.095975-75.188971 76.464132 76.464132 0 0 1 74.596932 75.507761C148.61708 552.736847 113.868937 587.48499 73.792441 587.48499A74.141517 74.141517 0 0 1 0.015256 511.840605zM0.015256 946.898288a74.095975 74.095975 0 0 1 73.686102-73.868268c40.714076-0.409873 75.735468 35.431265 75.006805 76.782922a76.691839 76.691839 0 0 1-74.55139 73.913809c-41.898154 0.091083-74.460307-33.655148-74.141517-76.828463z" p-id="8568" fill="#515151"></path></svg>